<svg id="Group_1830" data-name="Group 1830" xmlns="http://www.w3.org/2000/svg" xmlns:xlink="http://www.w3.org/1999/xlink" width="23.664" height="24.149" viewBox="0 0 23.664 24.149">
  <defs>
    <clipPath id="clip-path">
      <rect id="Rectangle_1523" data-name="Rectangle 1523" width="23.664" height="24.149" fill="none"/>
    </clipPath>
  </defs>
  <g id="Group_1830-2" data-name="Group 1830" clip-path="url(#clip-path)">
    <path id="Path_1109" data-name="Path 1109" d="M5.6,1.591A1.168,1.168,0,0,0,3.562,1.6S1,5.251,1,7.4a3.574,3.574,0,0,0,7.148,0C8.148,5.176,5.6,1.591,5.6,1.591Z" transform="translate(-0.118 -0.118)" fill="none" stroke="#231f20" stroke-linecap="round" stroke-linejoin="round" stroke-width="2"/>
    <path id="Path_1110" data-name="Path 1110" d="M22.324,1.591A1.168,1.168,0,0,0,20.29,1.6s-2.562,3.654-2.562,5.8a3.574,3.574,0,0,0,7.148,0C24.876,5.176,22.324,1.591,22.324,1.591Z" transform="translate(-2.094 -0.118)" fill="none" stroke="#231f20" stroke-linecap="round" stroke-linejoin="round" stroke-width="2"/>
    <path id="Path_1111" data-name="Path 1111" d="M13.96,15.673a1.168,1.168,0,0,0-2.035.007s-2.562,3.654-2.562,5.8a3.574,3.574,0,0,0,7.148,0C16.512,19.258,13.96,15.673,13.96,15.673Z" transform="translate(-1.106 -1.787)" fill="none" stroke="#231f20" stroke-linecap="round" stroke-linejoin="round" stroke-width="2"/>
  </g>
</svg>
