<svg xmlns="http://www.w3.org/2000/svg" xmlns:xlink="http://www.w3.org/1999/xlink" width="36.763" height="35.347" viewBox="0 0 36.763 35.347">
  <defs>
    <clipPath id="clip-path">
      <rect id="Rectangle_1702" data-name="Rectangle 1702" width="36.763" height="35.347" fill="none" stroke="#fff" stroke-width="2"/>
    </clipPath>
  </defs>
  <g id="Group_2775" data-name="Group 2775" transform="translate(0 0)">
    <g id="Group_2774" data-name="Group 2774" transform="translate(0 0)" clip-path="url(#clip-path)">
      <path id="Path_28192" data-name="Path 28192" d="M34.893,22.914a2.878,2.878,0,0,1-2.87,2.87H15.278a9.687,9.687,0,0,0-5.125,1.773l-6.9,5.421C2.016,33.952,1,33.458,1,31.88V3.87A2.878,2.878,0,0,1,3.87,1H32.024a2.878,2.878,0,0,1,2.87,2.87Z" transform="translate(0.435 0.435)" fill="none" stroke="#fff" stroke-linecap="round" stroke-linejoin="round" stroke-width="2"/>
      <circle id="Ellipse_100" data-name="Ellipse 100" cx="1.149" cy="1.149" r="1.149" transform="translate(9.484 12.542)" fill="none" stroke="#fff" stroke-linecap="round" stroke-linejoin="round" stroke-width="2"/>
      <circle id="Ellipse_101" data-name="Ellipse 101" cx="1.149" cy="1.149" r="1.149" transform="translate(17.232 12.542)" fill="none" stroke="#fff" stroke-linecap="round" stroke-linejoin="round" stroke-width="2"/>
      <circle id="Ellipse_102" data-name="Ellipse 102" cx="1.149" cy="1.149" r="1.149" transform="translate(24.98 12.542)" fill="none" stroke="#fff" stroke-linecap="round" stroke-linejoin="round" stroke-width="2"/>
    </g>
  </g>
</svg>
