<svg xmlns="http://www.w3.org/2000/svg" width="33.735" height="32.305" viewBox="0 0 33.735 32.305">
  <g id="Group_1812" data-name="Group 1812" transform="translate(1 1)">
    <g id="Group_1813" data-name="Group 1813" transform="translate(0 0)">
      <path id="Path_886" data-name="Path 886" d="M23.818,8.374V27.939A2.048,2.048,0,0,1,21.925,30.1H9.3A2.048,2.048,0,0,1,7.41,27.939V8.374" transform="translate(0.046 0.203)" fill="none" stroke="#231f20" stroke-linecap="round" stroke-linejoin="round" stroke-width="2"/>
      <path id="Path_887" data-name="Path 887" d="M5.941,1.91V8.994H25.854V1.91" transform="translate(-0.194 -0.852)" fill="none" stroke="#231f20" stroke-linecap="round" stroke-linejoin="round" stroke-width="2"/>
      <line id="Line_20" data-name="Line 20" y1="23.369" transform="translate(29.664 1.057)" fill="none" stroke="#231f20" stroke-linecap="round" stroke-linejoin="round" stroke-width="2"/>
      <line id="Line_21" data-name="Line 21" x2="31.735" fill="none" stroke="#231f20" stroke-linecap="round" stroke-linejoin="round" stroke-width="2"/>
      <path id="Path_888" data-name="Path 888" d="M14.1,13.722a1.988,1.988,0,1,1-1.989-1.989A1.989,1.989,0,0,1,14.1,13.722Z" transform="translate(0.489 0.751)" fill="none" stroke="#231f20" stroke-linecap="round" stroke-linejoin="round" stroke-width="2"/>
      <path id="Path_889" data-name="Path 889" d="M7.41,24.219l3.773-3.773,2.1,1.561,6.131-6.131,4.4,4" transform="translate(0.046 1.427)" fill="none" stroke="#231f20" stroke-linecap="round" stroke-linejoin="round" stroke-width="2"/>
    </g>
  </g>
</svg>
