<svg xmlns="http://www.w3.org/2000/svg" width="60.691" height="58.103" viewBox="0 0 60.691 58.103">
  <g id="Group_1858" data-name="Group 1858" transform="translate(1 1)">
    <g id="Group_1859" data-name="Group 1859" transform="translate(0 0)">
      <path id="Path_1132" data-name="Path 1132" d="M37.756,10.374V42.288a3.791,3.791,0,0,1-3.5,4.005H10.912a3.789,3.789,0,0,1-3.5-4.005V10.374" transform="translate(6.379 9.811)" fill="none" stroke="#231f20" stroke-linecap="round" stroke-linejoin="round" stroke-width="2"/>
      <path id="Path_1133" data-name="Path 1133" d="M5.941,1.91V19.332H42.768V1.91" transform="translate(4.688 0.049)" fill="none" stroke="#231f20" stroke-linecap="round" stroke-linejoin="round" stroke-width="2"/>
      <line id="Line_47" data-name="Line 47" y1="43.263" transform="translate(54.862 1.957)" fill="none" stroke="#231f20" stroke-linecap="round" stroke-linejoin="round" stroke-width="2"/>
      <line id="Line_48" data-name="Line 48" x2="58.691" fill="none" stroke="#231f20" stroke-linecap="round" stroke-linejoin="round" stroke-width="2"/>
      <path id="Path_1134" data-name="Path 1134" d="M17.481,15.415A3.677,3.677,0,1,1,13.8,11.733,3.68,3.68,0,0,1,17.481,15.415Z" transform="translate(9.505 11.378)" fill="none" stroke="#231f20" stroke-linecap="round" stroke-linejoin="round" stroke-width="2"/>
      <path id="Path_1135" data-name="Path 1135" d="M7.41,31.322l6.978-6.985,3.891,2.89,11.339-11.35,8.14,7.409" transform="translate(6.379 16.156)" fill="none" stroke="#231f20" stroke-linecap="round" stroke-linejoin="round" stroke-width="2"/>
    </g>
  </g>
</svg>
