<svg xmlns="http://www.w3.org/2000/svg" width="60.838" height="58.242" viewBox="0 0 60.838 58.242">
  <g id="Group_1849" data-name="Group 1849" transform="translate(1 1)">
    <g id="Group_1852" data-name="Group 1852" transform="translate(0 0)">
      <path id="Path_1121" data-name="Path 1121" d="M37.832,4.373V49.318a3.8,3.8,0,0,1-3.511,4.015h-23.4A3.8,3.8,0,0,1,7.41,49.318V4.373" transform="translate(6.413 2.908)" fill="none" stroke="#231f20" stroke-linecap="round" stroke-linejoin="round" stroke-width="2"/>
      <path id="Path_1122" data-name="Path 1122" d="M5.941,1.91V6.421H42.86V1.91" transform="translate(4.714 0.054)" fill="none" stroke="#231f20" stroke-linecap="round" stroke-linejoin="round" stroke-width="2"/>
      <line id="Line_41" data-name="Line 41" y1="43.372" transform="translate(54.999 1.962)" fill="none" stroke="#231f20" stroke-linecap="round" stroke-linejoin="round" stroke-width="2"/>
      <line id="Line_42" data-name="Line 42" x2="58.838" fill="none" stroke="#231f20" stroke-linecap="round" stroke-linejoin="round" stroke-width="2"/>
      <path id="Path_1123" data-name="Path 1123" d="M17.5,15.424a3.687,3.687,0,1,1-3.688-3.691A3.689,3.689,0,0,1,17.5,15.424Z" transform="translate(9.554 11.436)" fill="none" stroke="#231f20" stroke-linecap="round" stroke-linejoin="round" stroke-width="2"/>
      <path id="Path_1124" data-name="Path 1124" d="M7.41,31.36l7-7,3.9,2.9L29.674,15.876l8.16,7.428" transform="translate(6.413 16.236)" fill="none" stroke="#231f20" stroke-linecap="round" stroke-linejoin="round" stroke-width="2"/>
    </g>
  </g>
</svg>
