<svg xmlns="http://www.w3.org/2000/svg" width="58.916" height="46.7" viewBox="0 0 58.916 46.7">
  <g id="Group_2462" data-name="Group 2462" transform="translate(1.5 1.5)">
    <g id="Group_2463" data-name="Group 2463" transform="translate(0 0)">
      <line id="Line_48695" data-name="Line 48695" y1="22.27" x2="3.38" transform="translate(42.483 21.222)" fill="none" stroke="#fff" stroke-linecap="round" stroke-linejoin="round" stroke-width="3"/>
      <path id="Path_28074" data-name="Path 28074" d="M1,1H17.517a4.069,4.069,0,0,1,4.057,4.057V25.13a4.069,4.069,0,0,1-4.057,4.057H1" transform="translate(-1 -1)" fill="none" stroke="#fff" stroke-linecap="round" stroke-linejoin="round" stroke-width="3"/>
      <path id="Path_28075" data-name="Path 28075" d="M1,14.9H17.517a4.069,4.069,0,0,1,4.057,4.057v7.191A4.069,4.069,0,0,1,17.517,30.2H1" transform="translate(-1 13.292)" fill="none" stroke="#fff" stroke-linecap="round" stroke-linejoin="round" stroke-width="3"/>
      <rect id="Rectangle_1544" data-name="Rectangle 1544" width="9.691" height="27.769" rx="2" transform="translate(20.575 15.723)" fill="none" stroke="#fff" stroke-linecap="round" stroke-linejoin="round" stroke-width="3"/>
      <line id="Line_48696" data-name="Line 48696" x2="14.579" transform="translate(40.994 21.223)" fill="none" stroke="#fff" stroke-linecap="round" stroke-linejoin="round" stroke-width="3"/>
      <path id="Path_28076" data-name="Path 28076" d="M31.544,1.015a5.877,5.877,0,0,0-5.877,5.877v9.437c0,3.246,1.925,5.879,5.171,5.879" transform="translate(24.372 -0.985)" fill="none" stroke="#fff" stroke-linecap="round" stroke-linejoin="round" stroke-width="3"/>
    </g>
  </g>
</svg>
