<svg xmlns="http://www.w3.org/2000/svg" width="35.996" height="36.476" viewBox="0 0 35.996 36.476">
  <g id="Group_1811" data-name="Group 1811" transform="translate(1 1)">
    <g id="Group_1814" data-name="Group 1814" transform="translate(0 0)">
      <path id="Path_885" data-name="Path 885" d="M23.4,16.8a10.939,10.939,0,0,0-1.1-3.619L19.732,7.888a4.41,4.41,0,0,0-3.622-2.27h-.2a4.408,4.408,0,0,0-3.622,2.27L9.718,13.183A10.932,10.932,0,0,0,8.62,16.8v.719a7.388,7.388,0,0,0,14.776,0Z" transform="translate(0.989 0.205)" fill="none" stroke="#fff" stroke-linecap="round" stroke-linejoin="round" stroke-width="2"/>
      <rect id="Rectangle_1516" data-name="Rectangle 1516" width="7.188" height="5.825" rx="2" transform="translate(13.404)" fill="none" stroke="#fff" stroke-linecap="round" stroke-linejoin="round" stroke-width="2"/>
      <line id="Line_15" data-name="Line 15" x2="4.343" transform="translate(0 17.426)" fill="none" stroke="#fff" stroke-linecap="round" stroke-linejoin="round" stroke-width="2"/>
      <line id="Line_16" data-name="Line 16" y1="3.072" x2="3.072" transform="translate(4.942 26.389)" fill="none" stroke="#fff" stroke-linecap="round" stroke-linejoin="round" stroke-width="2"/>
      <line id="Line_17" data-name="Line 17" y1="4.343" transform="translate(16.946 30.134)" fill="none" stroke="#fff" stroke-linecap="round" stroke-linejoin="round" stroke-width="2"/>
      <line id="Line_18" data-name="Line 18" x1="3.072" y1="3.072" transform="translate(25.908 26.463)" fill="none" stroke="#fff" stroke-linecap="round" stroke-linejoin="round" stroke-width="2"/>
      <line id="Line_19" data-name="Line 19" x1="4.343" transform="translate(29.653 17.531)" fill="none" stroke="#fff" stroke-linecap="round" stroke-linejoin="round" stroke-width="2"/>
    </g>
  </g>
</svg>
