<svg xmlns="http://www.w3.org/2000/svg" width="34.963" height="34.962" viewBox="0 0 34.963 34.962">
  <g id="Group_1799" data-name="Group 1799" transform="translate(1 1)">
    <g id="Group_1786" data-name="Group 1786" transform="translate(0 0)">
      <path id="Path_852" data-name="Path 852" d="M7.947,4.031,13.921,10a8.222,8.222,0,0,1,7.129.009L27.022,4.04A16.5,16.5,0,0,0,7.947,4.031ZM4.038,27.026l5.974-5.974a8.216,8.216,0,0,1,0-7.157L4.047,7.931A16.5,16.5,0,0,0,4.038,27.026ZM24.95,13.914a8.222,8.222,0,0,1,.009,7.129l5.974,5.972A16.5,16.5,0,0,0,30.923,7.94ZM13.911,24.952,7.938,30.926a16.5,16.5,0,0,0,19.094-.009l-5.963-5.964A8.22,8.22,0,0,1,13.911,24.952Z" transform="translate(-1 -1.001)" fill="none" stroke="#fff" stroke-linecap="round" stroke-linejoin="round" stroke-width="2"/>
    </g>
  </g>
</svg>
