<svg xmlns="http://www.w3.org/2000/svg" width="36.37" height="22.293" viewBox="0 0 36.37 22.293">
  <g id="Group_1816" data-name="Group 1816" transform="translate(1 1)">
    <g id="Group_1817" data-name="Group 1817" transform="translate(0 0)">
      <path id="Path_890" data-name="Path 890" d="M35.37,3.749C29.644,3.749,29.644,1,23.919,1s-5.73,2.749-11.46,2.749S6.73,1,1,1" transform="translate(-1 -1)" fill="none" stroke="#231f20" stroke-linecap="round" stroke-linejoin="round" stroke-width="2"/>
      <path id="Path_891" data-name="Path 891" d="M35.37,10.683c-5.726,0-5.726-2.749-11.451-2.749s-5.73,2.749-11.46,2.749S6.73,7.934,1,7.934" transform="translate(-1 0.838)" fill="none" stroke="#231f20" stroke-linecap="round" stroke-linejoin="round" stroke-width="2"/>
      <path id="Path_892" data-name="Path 892" d="M35.37,17.616c-5.726,0-5.726-2.749-11.451-2.749s-5.73,2.749-11.46,2.749S6.73,14.867,1,14.867" transform="translate(-1 2.677)" fill="none" stroke="#231f20" stroke-linecap="round" stroke-linejoin="round" stroke-width="2"/>
    </g>
  </g>
</svg>
